# xmcd
#
# Track frame offsets: 
#        150
#        21162
#        36325
#
# Disc length: 769 seconds
#
# Revision: 2
# Processed by: cddbd v1.5.1PL0 Copyright (c) Steve Scherf et al.
# Submitted via: ExactAudioCopy v0.95a3
#
DISCID=1e02ff03
DTITLE=Tina Turner - Missing You
DYEAR=1996
DGENRE=Adult Contempory
TTITLE0=Missing You (Edit)
TTITLE1=Do Something (Missing You CD Single Version)
TTITLE2=We Don't Need Another Here (Live)
EXTD=
EXTT0=
EXTT1=
EXTT2=
PLAYORDER=
